<mxfile host="65bd71144e">
    <diagram id="CGE-V-YyImQBMw3J6Rf1" name="Page-1">
        <mxGraphModel dx="1806" dy="866" grid="0" gridSize="13" guides="1" tooltips="1" connect="1" arrows="1" fold="1" page="0" pageScale="1" pageWidth="827" pageHeight="1169" math="0" shadow="0">
            <root>
                <mxCell id="0"/>
                <mxCell id="1" parent="0"/>
                <mxCell id="2" value="Customer" style="whiteSpace=wrap;html=1;align=center;rounded=1;" parent="1" vertex="1">
                    <mxGeometry x="-218" y="716" width="100" height="40" as="geometry"/>
                </mxCell>
                <mxCell id="238" style="edgeStyle=none;html=1;entryX=0.5;entryY=1;entryDx=0;entryDy=0;strokeColor=default;fontSize=10;endArrow=none;endFill=0;exitX=0.5;exitY=0;exitDx=0;exitDy=0;" parent="1" source="3" target="237" edge="1">
                    <mxGeometry relative="1" as="geometry">
                        <mxPoint x="312" y="360" as="sourcePoint"/>
                    </mxGeometry>
                </mxCell>
                <mxCell id="3" value="Product" style="whiteSpace=wrap;html=1;align=center;rounded=1;arcSize=28;" parent="1" vertex="1">
                    <mxGeometry x="253" y="390" width="100" height="40" as="geometry"/>
                </mxCell>
                <mxCell id="179" style="edgeStyle=none;html=1;exitX=0.5;exitY=1;exitDx=0;exitDy=0;entryX=0.5;entryY=0;entryDx=0;entryDy=0;strokeColor=default;endArrow=none;endFill=0;" parent="1" target="177" edge="1">
                    <mxGeometry relative="1" as="geometry">
                        <mxPoint x="303" y="768" as="sourcePoint"/>
                    </mxGeometry>
                </mxCell>
                <mxCell id="6" value="Transaction" style="whiteSpace=wrap;html=1;align=center;rounded=1;" parent="1" vertex="1">
                    <mxGeometry x="777" y="729" width="100" height="40" as="geometry"/>
                </mxCell>
                <mxCell id="214" style="edgeStyle=none;html=1;exitX=0.5;exitY=0;exitDx=0;exitDy=0;entryX=0.5;entryY=1;entryDx=0;entryDy=0;strokeColor=default;endArrow=none;endFill=0;" parent="1" source="7" target="211" edge="1">
                    <mxGeometry relative="1" as="geometry"/>
                </mxCell>
                <mxCell id="7" value="Supplier" style="whiteSpace=wrap;html=1;align=center;rounded=1;" parent="1" vertex="1">
                    <mxGeometry x="253" y="69" width="100" height="40" as="geometry"/>
                </mxCell>
                <mxCell id="8" value="Category" style="whiteSpace=wrap;html=1;align=center;rounded=1;" parent="1" vertex="1">
                    <mxGeometry x="852.9" y="390" width="100" height="40" as="geometry"/>
                </mxCell>
                <mxCell id="9" value="Ad" style="whiteSpace=wrap;html=1;align=center;rounded=1;" parent="1" vertex="1">
                    <mxGeometry x="-231" y="390.5" width="100" height="40" as="geometry"/>
                </mxCell>
                <mxCell id="10" value="belongs to" style="shape=rhombus;perimeter=rhombusPerimeter;whiteSpace=wrap;html=1;align=center;rounded=1;" parent="1" vertex="1">
                    <mxGeometry x="579" y="380" width="120" height="60" as="geometry"/>
                </mxCell>
                <mxCell id="21" value="1" style="endArrow=none;html=1;rounded=1;entryX=0;entryY=0.5;entryDx=0;entryDy=0;exitX=0.953;exitY=0.499;exitDx=0;exitDy=0;exitPerimeter=0;" parent="1" source="10" target="8" edge="1">
                    <mxGeometry relative="1" as="geometry">
                        <mxPoint x="793" y="344" as="sourcePoint"/>
                        <mxPoint x="950" y="440" as="targetPoint"/>
                    </mxGeometry>
                </mxCell>
                <mxCell id="23" value="N" style="endArrow=none;html=1;rounded=1;exitX=0;exitY=0.5;exitDx=0;exitDy=0;entryX=1;entryY=0.5;entryDx=0;entryDy=0;" parent="1" source="10" target="3" edge="1">
                    <mxGeometry relative="1" as="geometry">
                        <mxPoint x="403" y="422" as="sourcePoint"/>
                        <mxPoint x="364" y="422" as="targetPoint"/>
                    </mxGeometry>
                </mxCell>
                <mxCell id="25" value="category_id" style="ellipse;whiteSpace=wrap;html=1;align=center;fontStyle=4;rounded=1;fillColor=#60a917;fontColor=#ffffff;strokeColor=#2D7600;" parent="1" vertex="1">
                    <mxGeometry x="746" y="336.5" width="100" height="40" as="geometry"/>
                </mxCell>
                <mxCell id="28" value="" style="endArrow=none;html=1;rounded=0;entryX=0.5;entryY=0;entryDx=0;entryDy=0;exitX=1;exitY=0.5;exitDx=0;exitDy=0;" parent="1" source="25" target="8" edge="1">
                    <mxGeometry relative="1" as="geometry">
                        <mxPoint x="590.9" y="474" as="sourcePoint"/>
                        <mxPoint x="750.9" y="474" as="targetPoint"/>
                    </mxGeometry>
                </mxCell>
                <mxCell id="35" value="product_name" style="ellipse;whiteSpace=wrap;html=1;align=center;fontStyle=0;rounded=1;fillColor=#1ba1e2;fontColor=#ffffff;strokeColor=#006EAF;" parent="1" vertex="1">
                    <mxGeometry x="403" y="263" width="100" height="40" as="geometry"/>
                </mxCell>
                <mxCell id="36" value="" style="endArrow=none;html=1;rounded=0;exitX=0;exitY=1;exitDx=0;exitDy=0;entryX=0.5;entryY=0;entryDx=0;entryDy=0;" parent="1" source="35" target="3" edge="1">
                    <mxGeometry relative="1" as="geometry">
                        <mxPoint x="346" y="422" as="sourcePoint"/>
                        <mxPoint x="219" y="410" as="targetPoint"/>
                    </mxGeometry>
                </mxCell>
                <mxCell id="659" style="edgeStyle=none;html=1;endArrow=none;endFill=0;" edge="1" parent="1" source="60" target="317">
                    <mxGeometry relative="1" as="geometry"/>
                </mxCell>
                <mxCell id="60" value="&lt;div&gt;orders_id&lt;/div&gt;" style="ellipse;whiteSpace=wrap;html=1;align=center;fontStyle=4;rounded=1;fillColor=#60a917;fontColor=#ffffff;strokeColor=#2D7600;" parent="1" vertex="1">
                    <mxGeometry x="107" y="807" width="100" height="40" as="geometry"/>
                </mxCell>
                <mxCell id="66" value="supplied by" style="shape=rhombus;perimeter=rhombusPerimeter;whiteSpace=wrap;html=1;align=center;rounded=1;" parent="1" vertex="1">
                    <mxGeometry x="243" y="154" width="120" height="60" as="geometry"/>
                </mxCell>
                <mxCell id="67" value="1" style="endArrow=none;html=1;rounded=1;entryX=0.5;entryY=1;entryDx=0;entryDy=0;exitX=0.5;exitY=0;exitDx=0;exitDy=0;" parent="1" source="66" target="7" edge="1">
                    <mxGeometry relative="1" as="geometry">
                        <mxPoint x="515" y="164" as="sourcePoint"/>
                        <mxPoint x="564.6399999999999" y="230" as="targetPoint"/>
                    </mxGeometry>
                </mxCell>
                <mxCell id="69" value="N" style="endArrow=none;html=1;rounded=1;exitX=0.5;exitY=1;exitDx=0;exitDy=0;entryX=0.5;entryY=0;entryDx=0;entryDy=0;" parent="1" source="66" target="3" edge="1">
                    <mxGeometry relative="1" as="geometry">
                        <mxPoint x="385" y="313" as="sourcePoint"/>
                        <mxPoint x="335" y="301" as="targetPoint"/>
                    </mxGeometry>
                </mxCell>
                <mxCell id="71" value="supplier_id" style="ellipse;whiteSpace=wrap;html=1;align=center;fontStyle=4;rounded=1;fillColor=#60a917;fontColor=#ffffff;strokeColor=#2D7600;" parent="1" vertex="1">
                    <mxGeometry x="77" y="90" width="100" height="40" as="geometry"/>
                </mxCell>
                <mxCell id="72" value="" style="endArrow=none;html=1;rounded=0;entryX=1;entryY=0.5;entryDx=0;entryDy=0;exitX=0;exitY=0.75;exitDx=0;exitDy=0;" parent="1" source="7" target="71" edge="1">
                    <mxGeometry relative="1" as="geometry">
                        <mxPoint x="373" y="88" as="sourcePoint"/>
                        <mxPoint x="331" y="98" as="targetPoint"/>
                    </mxGeometry>
                </mxCell>
                <mxCell id="75" value="" style="endArrow=none;html=1;rounded=0;exitX=0.5;exitY=0;exitDx=0;exitDy=0;entryX=0.582;entryY=1.02;entryDx=0;entryDy=0;entryPerimeter=0;" parent="1" source="2" target="76" edge="1">
                    <mxGeometry relative="1" as="geometry">
                        <mxPoint x="-297" y="782.6699999999998" as="sourcePoint"/>
                        <mxPoint x="-297" y="820.3399999999999" as="targetPoint"/>
                    </mxGeometry>
                </mxCell>
                <mxCell id="76" value="&lt;div&gt;customer_id&lt;/div&gt;" style="ellipse;whiteSpace=wrap;html=1;align=center;fontStyle=4;rounded=1;fillColor=#60a917;fontColor=#ffffff;strokeColor=#2D7600;" parent="1" vertex="1">
                    <mxGeometry x="-224" y="512" width="100" height="40" as="geometry"/>
                </mxCell>
                <mxCell id="78" value="M" style="endArrow=none;html=1;rounded=0;entryX=1;entryY=0.5;entryDx=0;entryDy=0;exitX=0;exitY=0.5;exitDx=0;exitDy=0;" parent="1" source="317" target="2" edge="1">
                    <mxGeometry relative="1" as="geometry">
                        <mxPoint x="30" y="748" as="sourcePoint"/>
                        <mxPoint x="155" y="548.67" as="targetPoint"/>
                    </mxGeometry>
                </mxCell>
                <mxCell id="82" value="N" style="endArrow=none;html=1;rounded=0;entryX=0.5;entryY=1;entryDx=0;entryDy=0;exitX=0.5;exitY=0;exitDx=0;exitDy=0;" parent="1" source="317" target="3" edge="1">
                    <mxGeometry relative="1" as="geometry">
                        <mxPoint x="303" y="510" as="sourcePoint"/>
                        <mxPoint x="340" y="582" as="targetPoint"/>
                    </mxGeometry>
                </mxCell>
                <mxCell id="402" style="edgeStyle=none;html=1;entryX=0.401;entryY=0.037;entryDx=0;entryDy=0;entryPerimeter=0;endArrow=none;endFill=0;" parent="1" source="94" target="6" edge="1">
                    <mxGeometry relative="1" as="geometry"/>
                </mxCell>
                <mxCell id="94" value="transaction_id" style="ellipse;whiteSpace=wrap;html=1;align=center;fontStyle=4;rounded=1;fillColor=#60a917;fontColor=#ffffff;strokeColor=#2D7600;" parent="1" vertex="1">
                    <mxGeometry x="689" y="586" width="101" height="40" as="geometry"/>
                </mxCell>
                <mxCell id="108" value="&lt;u&gt;ad_id&lt;/u&gt;" style="ellipse;whiteSpace=wrap;html=1;align=center;rounded=1;fillColor=#60a917;fontColor=#ffffff;strokeColor=#2D7600;" parent="1" vertex="1">
                    <mxGeometry x="-358" y="290" width="100" height="40" as="geometry"/>
                </mxCell>
                <mxCell id="111" value="" style="endArrow=none;html=1;rounded=0;exitX=1;exitY=1;exitDx=0;exitDy=0;entryX=0.5;entryY=0;entryDx=0;entryDy=0;" parent="1" source="108" target="9" edge="1">
                    <mxGeometry relative="1" as="geometry">
                        <mxPoint x="-99" y="362" as="sourcePoint"/>
                        <mxPoint x="-173" y="349.9999999999999" as="targetPoint"/>
                    </mxGeometry>
                </mxCell>
                <mxCell id="114" value="has" style="shape=rhombus;perimeter=rhombusPerimeter;whiteSpace=wrap;html=1;align=center;rounded=1;" parent="1" vertex="1">
                    <mxGeometry x="-48" y="380" width="120" height="60" as="geometry"/>
                </mxCell>
                <mxCell id="119" value="1" style="endArrow=none;html=1;rounded=0;entryX=0;entryY=0.5;entryDx=0;entryDy=0;exitX=1;exitY=0.5;exitDx=0;exitDy=0;" parent="1" source="114" target="3" edge="1">
                    <mxGeometry relative="1" as="geometry">
                        <mxPoint x="102" y="378" as="sourcePoint"/>
                        <mxPoint x="262" y="378" as="targetPoint"/>
                    </mxGeometry>
                </mxCell>
                <mxCell id="121" value="1" style="endArrow=none;html=1;rounded=0;entryX=1;entryY=0.5;entryDx=0;entryDy=0;exitX=0;exitY=0.5;exitDx=0;exitDy=0;" parent="1" source="114" target="9" edge="1">
                    <mxGeometry relative="1" as="geometry">
                        <mxPoint x="-57" y="409.9999999999998" as="sourcePoint"/>
                        <mxPoint x="156" y="423.0000000000001" as="targetPoint"/>
                    </mxGeometry>
                </mxCell>
                <mxCell id="151" value="is child of" style="shape=rhombus;perimeter=rhombusPerimeter;whiteSpace=wrap;html=1;align=center;rounded=1;shadow=0;" parent="1" vertex="1">
                    <mxGeometry x="921" y="472" width="120" height="60" as="geometry"/>
                </mxCell>
                <mxCell id="159" value="N" style="endArrow=none;html=1;rounded=0;exitX=0;exitY=0.5;exitDx=0;exitDy=0;entryX=0.5;entryY=1;entryDx=0;entryDy=0;" parent="1" source="151" target="8" edge="1">
                    <mxGeometry relative="1" as="geometry">
                        <mxPoint x="446" y="761" as="sourcePoint"/>
                        <mxPoint x="519" y="761" as="targetPoint"/>
                        <Array as="points">
                            <mxPoint x="903" y="502"/>
                        </Array>
                    </mxGeometry>
                </mxCell>
                <mxCell id="161" value="1" style="endArrow=none;html=1;rounded=0;entryX=0.5;entryY=0;entryDx=0;entryDy=0;exitX=1;exitY=0.5;exitDx=0;exitDy=0;" parent="1" source="8" target="151" edge="1">
                    <mxGeometry relative="1" as="geometry">
                        <mxPoint x="1022" y="413" as="sourcePoint"/>
                        <mxPoint x="870" y="762" as="targetPoint"/>
                        <Array as="points">
                            <mxPoint x="980" y="410"/>
                        </Array>
                    </mxGeometry>
                </mxCell>
                <mxCell id="166" style="edgeStyle=none;html=1;exitX=1;exitY=0.5;exitDx=0;exitDy=0;entryX=0.5;entryY=0;entryDx=0;entryDy=0;strokeColor=default;endArrow=none;endFill=0;" parent="1" source="163" target="3" edge="1">
                    <mxGeometry relative="1" as="geometry"/>
                </mxCell>
                <mxCell id="163" value="product_id" style="ellipse;whiteSpace=wrap;html=1;align=center;fontStyle=4;rounded=1;fillColor=#60a917;fontColor=#ffffff;strokeColor=#2D7600;" parent="1" vertex="1">
                    <mxGeometry x="94" y="340" width="100" height="40" as="geometry"/>
                </mxCell>
                <mxCell id="165" style="edgeStyle=none;html=1;exitX=0;exitY=1;exitDx=0;exitDy=0;entryX=0.5;entryY=0;entryDx=0;entryDy=0;strokeColor=default;endArrow=none;endFill=0;" parent="1" source="164" target="3" edge="1">
                    <mxGeometry relative="1" as="geometry"/>
                </mxCell>
                <mxCell id="164" value="product_description" style="ellipse;whiteSpace=wrap;html=1;align=center;fontStyle=0;rounded=1;fillColor=#1ba1e2;fontColor=#ffffff;strokeColor=#006EAF;" parent="1" vertex="1">
                    <mxGeometry x="429" y="307" width="123" height="40" as="geometry"/>
                </mxCell>
                <mxCell id="168" style="edgeStyle=none;html=1;exitX=0;exitY=0.5;exitDx=0;exitDy=0;entryX=0.5;entryY=0;entryDx=0;entryDy=0;strokeColor=default;endArrow=none;endFill=0;" parent="1" source="167" target="3" edge="1">
                    <mxGeometry relative="1" as="geometry"/>
                </mxCell>
                <mxCell id="167" value="product_price" style="ellipse;whiteSpace=wrap;html=1;align=center;fontStyle=0;rounded=1;fillColor=#1ba1e2;fontColor=#ffffff;strokeColor=#006EAF;" parent="1" vertex="1">
                    <mxGeometry x="442" y="355" width="100" height="40" as="geometry"/>
                </mxCell>
                <mxCell id="172" style="edgeStyle=none;html=1;exitX=0.5;exitY=1;exitDx=0;exitDy=0;entryX=0.5;entryY=0;entryDx=0;entryDy=0;strokeColor=default;endArrow=none;endFill=0;" parent="1" source="170" target="8" edge="1">
                    <mxGeometry relative="1" as="geometry"/>
                </mxCell>
                <mxCell id="170" value="name" style="ellipse;whiteSpace=wrap;html=1;align=center;fontStyle=0;rounded=1;fillColor=#1ba1e2;fontColor=#ffffff;strokeColor=#006EAF;" parent="1" vertex="1">
                    <mxGeometry x="850" y="263" width="100" height="40" as="geometry"/>
                </mxCell>
                <mxCell id="173" style="edgeStyle=none;html=1;exitX=0;exitY=0.5;exitDx=0;exitDy=0;entryX=0.5;entryY=0;entryDx=0;entryDy=0;strokeColor=default;endArrow=none;endFill=0;" parent="1" source="171" target="8" edge="1">
                    <mxGeometry relative="1" as="geometry"/>
                </mxCell>
                <mxCell id="171" value="description" style="ellipse;whiteSpace=wrap;html=1;align=center;fontStyle=0;rounded=1;fillColor=#1ba1e2;fontColor=#ffffff;strokeColor=#006EAF;" parent="1" vertex="1">
                    <mxGeometry x="942" y="340" width="112" height="40" as="geometry"/>
                </mxCell>
                <mxCell id="184" style="edgeStyle=none;html=1;exitX=0;exitY=0.5;exitDx=0;exitDy=0;entryX=1;entryY=1;entryDx=0;entryDy=0;strokeColor=default;endArrow=none;endFill=0;" parent="1" source="175" target="317" edge="1">
                    <mxGeometry relative="1" as="geometry">
                        <mxPoint x="303" y="768" as="targetPoint"/>
                    </mxGeometry>
                </mxCell>
                <mxCell id="175" value="&lt;div&gt;status_of_order&lt;/div&gt;" style="ellipse;whiteSpace=wrap;html=1;align=center;fontStyle=0;rounded=1;fillColor=#1ba1e2;fontColor=#ffffff;strokeColor=#006EAF;" parent="1" vertex="1">
                    <mxGeometry x="440" y="769" width="100" height="40" as="geometry"/>
                </mxCell>
                <mxCell id="177" value="&lt;div&gt;order_date&lt;/div&gt;" style="ellipse;whiteSpace=wrap;html=1;align=center;fontStyle=0;rounded=1;fillColor=#1ba1e2;fontColor=#ffffff;strokeColor=#006EAF;" parent="1" vertex="1">
                    <mxGeometry x="361" y="851" width="100" height="40" as="geometry"/>
                </mxCell>
                <mxCell id="392" style="edgeStyle=none;html=1;entryX=0.354;entryY=0.892;entryDx=0;entryDy=0;endArrow=none;endFill=0;entryPerimeter=0;" parent="1" source="205" target="317" edge="1">
                    <mxGeometry relative="1" as="geometry"/>
                </mxCell>
                <mxCell id="205" value="quantity_of_product" style="ellipse;whiteSpace=wrap;html=1;align=center;fontStyle=0;rounded=1;fillColor=#1ba1e2;fontColor=#ffffff;strokeColor=#006EAF;" parent="1" vertex="1">
                    <mxGeometry x="169" y="885" width="126" height="40" as="geometry"/>
                </mxCell>
                <mxCell id="344" style="edgeStyle=none;html=1;entryX=1;entryY=0.75;entryDx=0;entryDy=0;endArrow=none;endFill=0;" parent="1" target="3" edge="1">
                    <mxGeometry relative="1" as="geometry">
                        <mxPoint x="442.4752337412249" y="431.7852228738525" as="sourcePoint"/>
                    </mxGeometry>
                </mxCell>
                <mxCell id="213" style="edgeStyle=none;html=1;entryX=0.5;entryY=0;entryDx=0;entryDy=0;strokeColor=default;endArrow=none;endFill=0;exitX=0.5;exitY=1;exitDx=0;exitDy=0;" parent="1" source="209" target="7" edge="1">
                    <mxGeometry relative="1" as="geometry">
                        <mxPoint x="250" y="-3" as="sourcePoint"/>
                    </mxGeometry>
                </mxCell>
                <mxCell id="209" value="supplier_name" style="ellipse;whiteSpace=wrap;html=1;align=center;fontStyle=0;rounded=1;fillColor=#1ba1e2;fontColor=#ffffff;strokeColor=#006EAF;" parent="1" vertex="1">
                    <mxGeometry x="49.5" y="-56" width="100" height="40" as="geometry"/>
                </mxCell>
                <mxCell id="212" style="edgeStyle=none;html=1;exitX=1;exitY=1;exitDx=0;exitDy=0;entryX=0.5;entryY=0;entryDx=0;entryDy=0;strokeColor=default;endArrow=none;endFill=0;" parent="1" source="210" target="7" edge="1">
                    <mxGeometry relative="1" as="geometry"/>
                </mxCell>
                <mxCell id="210" value="supplier_phone" style="ellipse;whiteSpace=wrap;html=1;align=center;fontStyle=0;rounded=1;fillColor=#1ba1e2;fontColor=#ffffff;strokeColor=#006EAF;" parent="1" vertex="1">
                    <mxGeometry x="43" y="23" width="100" height="40" as="geometry"/>
                </mxCell>
                <mxCell id="211" value="supplier_email" style="ellipse;whiteSpace=wrap;html=1;align=center;fontStyle=0;rounded=1;fillColor=#1ba1e2;fontColor=#ffffff;strokeColor=#006EAF;" parent="1" vertex="1">
                    <mxGeometry x="156" y="-96" width="100" height="40" as="geometry"/>
                </mxCell>
                <mxCell id="217" value="url" style="ellipse;whiteSpace=wrap;html=1;align=center;fontStyle=0;rounded=1;fillColor=#1ba1e2;fontColor=#ffffff;strokeColor=#006EAF;" parent="1" vertex="1">
                    <mxGeometry x="-228.5" y="257" width="100" height="40" as="geometry"/>
                </mxCell>
                <mxCell id="218" value="" style="endArrow=none;html=1;rounded=0;exitX=0.5;exitY=1;exitDx=0;exitDy=0;entryX=0.5;entryY=0;entryDx=0;entryDy=0;" parent="1" source="217" target="9" edge="1">
                    <mxGeometry relative="1" as="geometry">
                        <mxPoint x="-20" y="389.5" as="sourcePoint"/>
                        <mxPoint x="-63" y="357.5000000000002" as="targetPoint"/>
                    </mxGeometry>
                </mxCell>
                <mxCell id="226" style="edgeStyle=none;html=1;exitX=0;exitY=1;exitDx=0;exitDy=0;entryX=0.5;entryY=0;entryDx=0;entryDy=0;strokeColor=default;fontSize=10;endArrow=none;endFill=0;" parent="1" source="220" target="2" edge="1">
                    <mxGeometry relative="1" as="geometry"/>
                </mxCell>
                <mxCell id="220" value="first_name" style="ellipse;whiteSpace=wrap;html=1;align=center;fontStyle=0;rounded=1;fillColor=#1ba1e2;fontColor=#ffffff;strokeColor=#006EAF;" parent="1" vertex="1">
                    <mxGeometry x="-124" y="555" width="100" height="40" as="geometry"/>
                </mxCell>
                <mxCell id="230" style="edgeStyle=none;html=1;exitX=0;exitY=0.5;exitDx=0;exitDy=0;strokeColor=default;fontSize=10;endArrow=none;endFill=0;" parent="1" source="222" edge="1">
                    <mxGeometry relative="1" as="geometry">
                        <mxPoint x="-170" y="718" as="targetPoint"/>
                    </mxGeometry>
                </mxCell>
                <mxCell id="222" value="customer_email" style="ellipse;whiteSpace=wrap;html=1;align=center;fontStyle=0;rounded=1;fillColor=#1ba1e2;fontColor=#ffffff;strokeColor=#006EAF;" parent="1" vertex="1">
                    <mxGeometry x="-96" y="673" width="100" height="40" as="geometry"/>
                </mxCell>
                <mxCell id="228" style="edgeStyle=none;html=1;exitX=1;exitY=0.5;exitDx=0;exitDy=0;entryX=0.5;entryY=0;entryDx=0;entryDy=0;strokeColor=default;fontSize=10;endArrow=none;endFill=0;" parent="1" source="223" target="2" edge="1">
                    <mxGeometry relative="1" as="geometry"/>
                </mxCell>
                <mxCell id="223" value="customer_phone" style="ellipse;whiteSpace=wrap;html=1;align=center;fontStyle=0;rounded=1;fillColor=#1ba1e2;fontColor=#ffffff;strokeColor=#006EAF;" parent="1" vertex="1">
                    <mxGeometry x="-334" y="520" width="97" height="45" as="geometry"/>
                </mxCell>
                <mxCell id="229" style="edgeStyle=none;html=1;exitX=0;exitY=0.5;exitDx=0;exitDy=0;entryX=0.5;entryY=0;entryDx=0;entryDy=0;strokeColor=default;fontSize=10;endArrow=none;endFill=0;" parent="1" source="224" target="2" edge="1">
                    <mxGeometry relative="1" as="geometry"/>
                </mxCell>
                <mxCell id="224" value="last_name" style="ellipse;whiteSpace=wrap;html=1;align=center;fontStyle=0;rounded=1;fillColor=#1ba1e2;fontColor=#ffffff;strokeColor=#006EAF;" parent="1" vertex="1">
                    <mxGeometry x="-96" y="611" width="100" height="40" as="geometry"/>
                </mxCell>
                <mxCell id="401" style="edgeStyle=none;html=1;entryX=0.5;entryY=0;entryDx=0;entryDy=0;endArrow=none;endFill=0;" parent="1" source="231" target="6" edge="1">
                    <mxGeometry relative="1" as="geometry"/>
                </mxCell>
                <mxCell id="231" value="transaction_date" style="ellipse;whiteSpace=wrap;html=1;align=center;fontStyle=0;rounded=1;fillColor=#1ba1e2;fontColor=#ffffff;strokeColor=#006EAF;" parent="1" vertex="1">
                    <mxGeometry x="809" y="562" width="100" height="40" as="geometry"/>
                </mxCell>
                <mxCell id="400" style="edgeStyle=none;html=1;endArrow=none;endFill=0;" parent="1" source="232" target="6" edge="1">
                    <mxGeometry relative="1" as="geometry"/>
                </mxCell>
                <mxCell id="232" value="payment_type" style="ellipse;whiteSpace=wrap;html=1;align=center;fontStyle=0;rounded=1;fillColor=#1ba1e2;fontColor=#ffffff;strokeColor=#006EAF;" parent="1" vertex="1">
                    <mxGeometry x="921" y="626" width="100" height="40" as="geometry"/>
                </mxCell>
                <mxCell id="237" value="product_stock" style="ellipse;whiteSpace=wrap;html=1;align=center;fontStyle=0;rounded=1;fillColor=#1ba1e2;fontColor=#ffffff;strokeColor=#006EAF;" parent="1" vertex="1">
                    <mxGeometry x="310" y="237" width="100" height="40" as="geometry"/>
                </mxCell>
                <mxCell id="642" style="edgeStyle=none;html=1;entryX=1;entryY=1;entryDx=0;entryDy=0;endArrow=none;endFill=0;" parent="1" source="256" target="637" edge="1">
                    <mxGeometry relative="1" as="geometry"/>
                </mxCell>
                <mxCell id="256" value="delivery_cost" style="ellipse;whiteSpace=wrap;html=1;align=center;fontStyle=0;rounded=1;fillColor=#1ba1e2;fontColor=#ffffff;strokeColor=#006EAF;" parent="1" vertex="1">
                    <mxGeometry x="374" y="1064" width="100" height="40" as="geometry"/>
                </mxCell>
                <mxCell id="398" style="edgeStyle=none;html=1;endArrow=none;endFill=0;" parent="1" source="269" target="6" edge="1">
                    <mxGeometry relative="1" as="geometry"/>
                </mxCell>
                <mxCell id="269" value="payment_status" style="ellipse;whiteSpace=wrap;html=1;align=center;fontStyle=0;rounded=1;fillColor=#1ba1e2;fontColor=#ffffff;strokeColor=#006EAF;" parent="1" vertex="1">
                    <mxGeometry x="941" y="722" width="100" height="40" as="geometry"/>
                </mxCell>
                <mxCell id="614" style="edgeStyle=none;html=1;endArrow=none;endFill=0;entryX=0.75;entryY=1;entryDx=0;entryDy=0;" parent="1" source="283" target="2" edge="1">
                    <mxGeometry relative="1" as="geometry">
                        <mxPoint x="-152.02747568303903" y="772.0183111395977" as="targetPoint"/>
                    </mxGeometry>
                </mxCell>
                <mxCell id="283" value="&lt;div&gt;customer_country&lt;/div&gt;" style="ellipse;whiteSpace=wrap;html=1;align=center;fontStyle=0;rounded=1;fillColor=#1ba1e2;fontColor=#ffffff;strokeColor=#006EAF;" parent="1" vertex="1">
                    <mxGeometry x="-96.5" y="881" width="100" height="40" as="geometry"/>
                </mxCell>
                <mxCell id="609" style="edgeStyle=none;html=1;endArrow=none;endFill=0;entryX=0;entryY=0.25;entryDx=0;entryDy=0;" parent="1" source="284" target="2" edge="1">
                    <mxGeometry relative="1" as="geometry">
                        <mxPoint x="-228.5" y="693" as="targetPoint"/>
                    </mxGeometry>
                </mxCell>
                <mxCell id="284" value="&lt;div&gt;customer_unit&lt;/div&gt;" style="ellipse;whiteSpace=wrap;html=1;align=center;fontStyle=0;rounded=1;fillColor=#1ba1e2;fontColor=#ffffff;strokeColor=#006EAF;" parent="1" vertex="1">
                    <mxGeometry x="-396.5" y="673" width="100" height="40" as="geometry"/>
                </mxCell>
                <mxCell id="610" style="edgeStyle=none;html=1;entryX=0;entryY=0.5;entryDx=0;entryDy=0;endArrow=none;endFill=0;" parent="1" source="285" edge="1">
                    <mxGeometry relative="1" as="geometry">
                        <mxPoint x="-217.5" y="753" as="targetPoint"/>
                    </mxGeometry>
                </mxCell>
                <mxCell id="285" value="&lt;div&gt;customer_city&lt;/div&gt;" style="ellipse;whiteSpace=wrap;html=1;align=center;fontStyle=0;rounded=1;fillColor=#1ba1e2;fontColor=#ffffff;strokeColor=#006EAF;" parent="1" vertex="1">
                    <mxGeometry x="-398.5" y="739" width="100" height="40" as="geometry"/>
                </mxCell>
                <mxCell id="612" style="edgeStyle=none;html=1;endArrow=none;endFill=0;" parent="1" source="286" target="2" edge="1">
                    <mxGeometry relative="1" as="geometry">
                        <mxPoint x="-182.0186849571014" y="772.138266534361" as="targetPoint"/>
                    </mxGeometry>
                </mxCell>
                <mxCell id="286" value="&lt;div&gt;customer_street&lt;/div&gt;" style="ellipse;whiteSpace=wrap;html=1;align=center;fontStyle=0;rounded=1;fillColor=#1ba1e2;fontColor=#ffffff;strokeColor=#006EAF;" parent="1" vertex="1">
                    <mxGeometry x="-328.5" y="878" width="100" height="40" as="geometry"/>
                </mxCell>
                <mxCell id="613" style="edgeStyle=none;html=1;endArrow=none;endFill=0;entryX=0.5;entryY=1;entryDx=0;entryDy=0;" parent="1" source="287" target="2" edge="1">
                    <mxGeometry relative="1" as="geometry">
                        <mxPoint x="-166.6177844173758" y="772.996886539484" as="targetPoint"/>
                    </mxGeometry>
                </mxCell>
                <mxCell id="287" value="&lt;div&gt;customer_block&lt;/div&gt;" style="ellipse;whiteSpace=wrap;html=1;align=center;fontStyle=0;rounded=1;fillColor=#1ba1e2;fontColor=#ffffff;strokeColor=#006EAF;" parent="1" vertex="1">
                    <mxGeometry x="-209.5" y="903" width="100" height="40" as="geometry"/>
                </mxCell>
                <mxCell id="391" style="edgeStyle=none;html=1;entryX=0;entryY=0.5;entryDx=0;entryDy=0;endArrow=none;endFill=0;" parent="1" source="317" target="6" edge="1">
                    <mxGeometry relative="1" as="geometry"/>
                </mxCell>
                <mxCell id="598" value="1" style="edgeLabel;html=1;align=center;verticalAlign=middle;resizable=0;points=[];" parent="391" vertex="1" connectable="0">
                    <mxGeometry x="-0.1719" y="6" relative="1" as="geometry">
                        <mxPoint as="offset"/>
                    </mxGeometry>
                </mxCell>
                <mxCell id="638" value="1" style="edgeStyle=none;html=1;entryX=0.5;entryY=0;entryDx=0;entryDy=0;endArrow=none;endFill=0;" parent="1" source="317" target="637" edge="1">
                    <mxGeometry relative="1" as="geometry"/>
                </mxCell>
                <mxCell id="317" value="Orders" style="shape=rhombus;perimeter=rhombusPerimeter;whiteSpace=wrap;html=1;align=center;rounded=1;" parent="1" vertex="1">
                    <mxGeometry x="243" y="712" width="120" height="60" as="geometry"/>
                </mxCell>
                <mxCell id="611" style="edgeStyle=none;html=1;entryX=0.164;entryY=1.076;entryDx=0;entryDy=0;endArrow=none;endFill=0;entryPerimeter=0;" parent="1" source="318" target="2" edge="1">
                    <mxGeometry relative="1" as="geometry">
                        <mxPoint x="-202.85533905932743" y="767.1421356237311" as="targetPoint"/>
                    </mxGeometry>
                </mxCell>
                <mxCell id="318" value="&lt;div&gt;customer_floor&lt;/div&gt;" style="ellipse;whiteSpace=wrap;html=1;align=center;fontStyle=0;rounded=1;fillColor=#1ba1e2;fontColor=#ffffff;strokeColor=#006EAF;" parent="1" vertex="1">
                    <mxGeometry x="-387.5" y="811" width="100" height="40" as="geometry"/>
                </mxCell>
                <mxCell id="321" style="edgeStyle=none;html=1;endArrow=none;endFill=0;" parent="1" source="320" edge="1">
                    <mxGeometry relative="1" as="geometry">
                        <mxPoint x="-167.66815185546875" y="711.9092864990234" as="targetPoint"/>
                    </mxGeometry>
                </mxCell>
                <mxCell id="320" value="date_of_birth" style="ellipse;whiteSpace=wrap;html=1;align=center;fontStyle=0;rounded=1;fillColor=#1ba1e2;fontColor=#ffffff;strokeColor=#006EAF;" parent="1" vertex="1">
                    <mxGeometry x="-386" y="579" width="100" height="40" as="geometry"/>
                </mxCell>
                <mxCell id="640" style="edgeStyle=none;html=1;entryX=0;entryY=1;entryDx=0;entryDy=0;endArrow=none;endFill=0;" parent="1" source="329" target="637" edge="1">
                    <mxGeometry relative="1" as="geometry"/>
                </mxCell>
                <mxCell id="329" value="delivered_date" style="ellipse;whiteSpace=wrap;html=1;align=center;fontStyle=0;rounded=1;fillColor=#1ba1e2;fontColor=#ffffff;strokeColor=#006EAF;" parent="1" vertex="1">
                    <mxGeometry x="112" y="1070" width="100" height="40" as="geometry"/>
                </mxCell>
                <mxCell id="641" style="edgeStyle=none;html=1;endArrow=none;endFill=0;" parent="1" source="330" target="637" edge="1">
                    <mxGeometry relative="1" as="geometry"/>
                </mxCell>
                <mxCell id="330" value="delivery_status" style="ellipse;whiteSpace=wrap;html=1;align=center;fontStyle=0;rounded=1;fillColor=#1ba1e2;fontColor=#ffffff;strokeColor=#006EAF;" parent="1" vertex="1">
                    <mxGeometry x="238" y="1102" width="100" height="40" as="geometry"/>
                </mxCell>
                <mxCell id="643" style="edgeStyle=none;html=1;entryX=1;entryY=0;entryDx=0;entryDy=0;endArrow=none;endFill=0;" parent="1" source="334" target="637" edge="1">
                    <mxGeometry relative="1" as="geometry"/>
                </mxCell>
                <mxCell id="334" value="delivery_type" style="ellipse;whiteSpace=wrap;html=1;align=center;fontStyle=0;rounded=1;fillColor=#1ba1e2;fontColor=#ffffff;strokeColor=#006EAF;" parent="1" vertex="1">
                    <mxGeometry x="415" y="994" width="100" height="40" as="geometry"/>
                </mxCell>
                <mxCell id="615" style="edgeStyle=none;html=1;entryX=1;entryY=0.5;entryDx=0;entryDy=0;endArrow=none;endFill=0;" parent="1" source="350" edge="1">
                    <mxGeometry relative="1" as="geometry">
                        <mxPoint x="-117.5" y="753" as="targetPoint"/>
                    </mxGeometry>
                </mxCell>
                <mxCell id="350" value="&lt;div&gt;customer_zipcode&lt;/div&gt;" style="ellipse;whiteSpace=wrap;html=1;align=center;fontStyle=0;rounded=1;fillColor=#1ba1e2;fontColor=#ffffff;strokeColor=#006EAF;" parent="1" vertex="1">
                    <mxGeometry x="-49.5" y="816" width="100" height="40" as="geometry"/>
                </mxCell>
                <mxCell id="397" style="edgeStyle=none;html=1;endArrow=none;endFill=0;" parent="1" source="374" target="6" edge="1">
                    <mxGeometry relative="1" as="geometry"/>
                </mxCell>
                <mxCell id="374" value="card_number" style="ellipse;whiteSpace=wrap;html=1;align=center;fontStyle=0;rounded=1;fillColor=#1ba1e2;fontColor=#ffffff;strokeColor=#006EAF;" parent="1" vertex="1">
                    <mxGeometry x="924" y="819" width="100" height="40" as="geometry"/>
                </mxCell>
                <mxCell id="396" style="edgeStyle=none;html=1;entryX=0.5;entryY=1;entryDx=0;entryDy=0;endArrow=none;endFill=0;" parent="1" source="376" target="6" edge="1">
                    <mxGeometry relative="1" as="geometry"/>
                </mxCell>
                <mxCell id="376" value="expiry_date" style="ellipse;whiteSpace=wrap;html=1;align=center;fontStyle=0;rounded=1;fillColor=#1ba1e2;fontColor=#ffffff;strokeColor=#006EAF;" parent="1" vertex="1">
                    <mxGeometry x="805" y="853" width="100" height="40" as="geometry"/>
                </mxCell>
                <mxCell id="395" style="edgeStyle=none;html=1;endArrow=none;endFill=0;" parent="1" source="377" target="6" edge="1">
                    <mxGeometry relative="1" as="geometry"/>
                </mxCell>
                <mxCell id="377" value="cvv" style="ellipse;whiteSpace=wrap;html=1;align=center;fontStyle=0;rounded=1;fillColor=#1ba1e2;fontColor=#ffffff;strokeColor=#006EAF;" parent="1" vertex="1">
                    <mxGeometry x="686" y="819" width="100" height="40" as="geometry"/>
                </mxCell>
                <mxCell id="381" style="edgeStyle=none;html=1;entryX=0;entryY=0.75;entryDx=0;entryDy=0;endArrow=none;endFill=0;" parent="1" source="380" target="3" edge="1">
                    <mxGeometry relative="1" as="geometry"/>
                </mxCell>
                <mxCell id="380" value="rating" style="ellipse;whiteSpace=wrap;html=1;align=center;fontStyle=0;rounded=1;fillColor=#1ba1e2;fontColor=#ffffff;strokeColor=#006EAF;" parent="1" vertex="1">
                    <mxGeometry x="92" y="423" width="100" height="40" as="geometry"/>
                </mxCell>
                <mxCell id="625" style="edgeStyle=none;html=1;endArrow=none;endFill=0;" parent="1" source="616" target="7" edge="1">
                    <mxGeometry relative="1" as="geometry">
                        <mxPoint x="317.40806975776013" y="3.5268904862678028" as="targetPoint"/>
                    </mxGeometry>
                </mxCell>
                <mxCell id="616" value="&lt;div&gt;supplier_unit&lt;/div&gt;" style="ellipse;whiteSpace=wrap;html=1;align=center;fontStyle=0;rounded=1;fillColor=#1ba1e2;fontColor=#ffffff;strokeColor=#006EAF;" parent="1" vertex="1">
                    <mxGeometry x="253" y="-128" width="100" height="40" as="geometry"/>
                </mxCell>
                <mxCell id="626" style="edgeStyle=none;html=1;entryX=0.75;entryY=0;entryDx=0;entryDy=0;endArrow=none;endFill=0;" parent="1" source="617" target="7" edge="1">
                    <mxGeometry relative="1" as="geometry">
                        <mxPoint x="338.0999999999999" y="6.460000000000036" as="targetPoint"/>
                    </mxGeometry>
                </mxCell>
                <mxCell id="617" value="&lt;div&gt;supplier_city&lt;/div&gt;" style="ellipse;whiteSpace=wrap;html=1;align=center;fontStyle=0;rounded=1;fillColor=#1ba1e2;fontColor=#ffffff;strokeColor=#006EAF;" parent="1" vertex="1">
                    <mxGeometry x="353" y="-101" width="100" height="40" as="geometry"/>
                </mxCell>
                <mxCell id="627" style="edgeStyle=none;html=1;entryX=0.918;entryY=0.018;entryDx=0;entryDy=0;entryPerimeter=0;endArrow=none;endFill=0;" parent="1" source="618" target="7" edge="1">
                    <mxGeometry relative="1" as="geometry">
                        <mxPoint x="363.6999999999998" y="12.899999999999977" as="targetPoint"/>
                    </mxGeometry>
                </mxCell>
                <mxCell id="618" value="&lt;div&gt;supplier_floor&lt;/div&gt;" style="ellipse;whiteSpace=wrap;html=1;align=center;fontStyle=0;rounded=1;fillColor=#1ba1e2;fontColor=#ffffff;strokeColor=#006EAF;" parent="1" vertex="1">
                    <mxGeometry x="434" y="-56" width="100" height="40" as="geometry"/>
                </mxCell>
                <mxCell id="628" style="edgeStyle=none;html=1;entryX=1;entryY=0;entryDx=0;entryDy=0;endArrow=none;endFill=0;" parent="1" source="619" target="7" edge="1">
                    <mxGeometry relative="1" as="geometry">
                        <mxPoint x="370" y="23.5" as="targetPoint"/>
                    </mxGeometry>
                </mxCell>
                <mxCell id="619" value="&lt;div&gt;supplier_street&lt;/div&gt;" style="ellipse;whiteSpace=wrap;html=1;align=center;fontStyle=0;rounded=1;fillColor=#1ba1e2;fontColor=#ffffff;strokeColor=#006EAF;" parent="1" vertex="1">
                    <mxGeometry x="480" y="-7" width="100" height="40" as="geometry"/>
                </mxCell>
                <mxCell id="629" style="edgeStyle=none;html=1;endArrow=none;endFill=0;entryX=1;entryY=0.25;entryDx=0;entryDy=0;" parent="1" source="620" target="7" edge="1">
                    <mxGeometry relative="1" as="geometry">
                        <mxPoint x="364.4451199869045" y="32.66193262887941" as="targetPoint"/>
                    </mxGeometry>
                </mxCell>
                <mxCell id="620" value="&lt;div&gt;supplier_block&lt;/div&gt;" style="ellipse;whiteSpace=wrap;html=1;align=center;fontStyle=0;rounded=1;fillColor=#1ba1e2;fontColor=#ffffff;strokeColor=#006EAF;" parent="1" vertex="1">
                    <mxGeometry x="498" y="51" width="100" height="40" as="geometry"/>
                </mxCell>
                <mxCell id="630" style="edgeStyle=none;html=1;endArrow=none;endFill=0;entryX=1;entryY=0.25;entryDx=0;entryDy=0;" parent="1" source="621" target="7" edge="1">
                    <mxGeometry relative="1" as="geometry">
                        <mxPoint x="352.60196344142605" y="38.66370392624481" as="targetPoint"/>
                    </mxGeometry>
                </mxCell>
                <mxCell id="621" value="&lt;div&gt;supplier_country&lt;/div&gt;" style="ellipse;whiteSpace=wrap;html=1;align=center;fontStyle=0;rounded=1;fillColor=#1ba1e2;fontColor=#ffffff;strokeColor=#006EAF;" parent="1" vertex="1">
                    <mxGeometry x="485" y="104" width="100" height="40" as="geometry"/>
                </mxCell>
                <mxCell id="631" style="edgeStyle=none;html=1;endArrow=none;endFill=0;entryX=1;entryY=0.75;entryDx=0;entryDy=0;" parent="1" source="622" target="7" edge="1">
                    <mxGeometry relative="1" as="geometry">
                        <mxPoint x="337.16703424678735" y="42.28421863235462" as="targetPoint"/>
                    </mxGeometry>
                </mxCell>
                <mxCell id="622" value="&lt;div&gt;supplier_zipcode&lt;/div&gt;" style="ellipse;whiteSpace=wrap;html=1;align=center;fontStyle=0;rounded=1;fillColor=#1ba1e2;fontColor=#ffffff;strokeColor=#006EAF;" parent="1" vertex="1">
                    <mxGeometry x="408" y="155" width="100" height="40" as="geometry"/>
                </mxCell>
                <mxCell id="639" style="edgeStyle=none;html=1;endArrow=none;endFill=0;" parent="1" source="633" target="637" edge="1">
                    <mxGeometry relative="1" as="geometry"/>
                </mxCell>
                <mxCell id="633" value="dispatched_date" style="ellipse;whiteSpace=wrap;html=1;align=center;fontStyle=0;rounded=1;fillColor=#1ba1e2;fontColor=#ffffff;strokeColor=#006EAF;" parent="1" vertex="1">
                    <mxGeometry x="80" y="1010" width="100" height="40" as="geometry"/>
                </mxCell>
                <mxCell id="637" value="Delivery" style="whiteSpace=wrap;html=1;align=center;rounded=1;" parent="1" vertex="1">
                    <mxGeometry x="250" y="1019" width="100" height="40" as="geometry"/>
                </mxCell>
                <mxCell id="647" style="edgeStyle=none;html=1;entryX=0.75;entryY=0;entryDx=0;entryDy=0;endArrow=none;endFill=0;" parent="1" source="646" target="637" edge="1">
                    <mxGeometry relative="1" as="geometry"/>
                </mxCell>
                <mxCell id="646" value="delivery_id" style="ellipse;whiteSpace=wrap;html=1;align=center;fontStyle=4;rounded=1;fillColor=#60a917;fontColor=#ffffff;strokeColor=#2D7600;" parent="1" vertex="1">
                    <mxGeometry x="384" y="937" width="101" height="40" as="geometry"/>
                </mxCell>
                <mxCell id="650" style="edgeStyle=none;html=1;entryX=0;entryY=0;entryDx=0;entryDy=0;endArrow=none;endFill=0;" parent="1" source="648" target="9" edge="1">
                    <mxGeometry relative="1" as="geometry"/>
                </mxCell>
                <mxCell id="648" value="ad_start_date" style="ellipse;whiteSpace=wrap;html=1;align=center;fontStyle=0;rounded=1;fillColor=#1ba1e2;fontColor=#ffffff;strokeColor=#006EAF;" parent="1" vertex="1">
                    <mxGeometry x="-418" y="355" width="100" height="40" as="geometry"/>
                </mxCell>
                <mxCell id="651" style="edgeStyle=none;html=1;entryX=0;entryY=0.75;entryDx=0;entryDy=0;endArrow=none;endFill=0;" parent="1" source="649" target="9" edge="1">
                    <mxGeometry relative="1" as="geometry"/>
                </mxCell>
                <mxCell id="649" value="ad_end_date" style="ellipse;whiteSpace=wrap;html=1;align=center;fontStyle=0;rounded=1;fillColor=#1ba1e2;fontColor=#ffffff;strokeColor=#006EAF;" parent="1" vertex="1">
                    <mxGeometry x="-358" y="432" width="100" height="40" as="geometry"/>
                </mxCell>
                <mxCell id="654" style="edgeStyle=none;html=1;endArrow=none;endFill=0;" parent="1" source="652" edge="1">
                    <mxGeometry relative="1" as="geometry">
                        <mxPoint x="-179.83738949424333" y="390.7498875668175" as="targetPoint"/>
                    </mxGeometry>
                </mxCell>
                <mxCell id="652" value="discount" style="ellipse;whiteSpace=wrap;html=1;align=center;fontStyle=0;rounded=1;fillColor=#1ba1e2;fontColor=#ffffff;strokeColor=#006EAF;" parent="1" vertex="1">
                    <mxGeometry x="-131" y="311" width="100" height="40" as="geometry"/>
                </mxCell>
                <mxCell id="655" value="is_discounted" style="ellipse;whiteSpace=wrap;html=1;align=center;fontStyle=0;rounded=1;fillColor=#1ba1e2;fontColor=#ffffff;strokeColor=#006EAF;" parent="1" vertex="1">
                    <mxGeometry x="434" y="418" width="100" height="40" as="geometry"/>
                </mxCell>
            </root>
        </mxGraphModel>
    </diagram>
</mxfile>